{"title":"Stuck 2014 UNRATED HDRIP x264 AC3 TiTAN","uid":11257831,"size":834695232,"categoryP":"video","categoryS":"movies","magnet":"?xt=urn:btih:cf2a4995e7703454ba829d3e96b6197e18cbeb83&amp;dn=Stuck+2014+UNRATED+HDRIP+x264+AC3+TiTAN&amp;tr=udp%3A%2F%2Ftracker.openbittorrent.com%3A80&amp;tr=udp%3A%2F%2Fopen.demonii.com%3A1337&amp;tr=udp%3A%2F%2Ftracker.coppersurfer.tk%3A6969&amp;tr=udp%3A%2F%2Fexodus.desync.com%3A6969","seeders":4,"leechers":2,"uploader":"xxxlavalxxx","files":-1,"time":1413924246,"description":"[IMG]http://i.imgur.com/4LKmRGk.jpg[/IMG]\n\n &lt;a href=&quot;\nhttp://www.imdb.com/title/tt2075318/&quot; rel=&quot;nofollow&quot; target=&quot;_NEW&quot;&gt;\nhttp://www.imdb.com/title/tt2075318/&lt;/a&gt;\n\n\nA hot one-night stand turns into an awkward morning after when GUY and HOLLY get STUCK in a dead-stopped traffic jam. As they begrudgingly get know each other, we learn of their sexually ... See full summary Â»\n\nDirector: Stuart Acher\nWriter: Stuart Acher\nStars: Madeline Zima, Joel David Moore, Abraham Benrubi\nGenres: Comedy | Drama | Romance\nCountry: USA\nLanguage: English\n\n\nSource: 1080p Web DL\n\nGeneral\n\nFormat: Matroska\nFormat version: Version 2\nFile size: 796 MiB\nDuration: 1h 23mn\nOverall bit rate mode: Variable\nOverall bit rate: 1 332 Kbps\nEncoded date: UTC 2014-10-21 17:54:13\n\nVideo\nID: 1\nFormat: AVC\nFormat/Info: Advanced Video Codec\nFormat profile: &lt;a class=&quot;__cf_email__&quot; href=&quot;/cdn-cgi/l/email-protection&quot; data-cfemail=&quot;c58daca2ad8589f1ebf4&quot;&gt;[email&amp;#160;protected]&lt;/a&gt;&lt;script cf-hash='f9e31' type=&quot;text/javascript&quot;&gt;\n/* &lt;![CDATA[ */!function(){try{var t=&quot;currentScript&quot;in document?document.currentScript:function(){for(var t=document.getElementsByTagName(&quot;script&quot;),e=t.length;e--;)if(t[e].getAttribute(&quot;cf-hash&quot;))return t[e]}();if(t&amp;&amp;t.previousSibling){var e,r,n,i,c=t.previousSibling,a=c.getAttribute(&quot;data-cfemail&quot;);if(a){for(e=&quot;&quot;,r=parseInt(a.substr(0,2),16),n=2;a.length-n;n+=2)i=parseInt(a.substr(n,2),16)^r,e+=String.fromCharCode(i);e=document.createTextNode(e),c.parentNode.replaceChild(e,c)}}}catch(u){}}();/* ]]&gt; */&lt;/script&gt;\nFormat settings, CABAC: Yes\nFormat settings, ReFrames: 3 frames\nCodec ID: V_MPEG4/ISO/AVC\nDuration: 1h 23mn\nBit rate mode: Variable\nBit rate: 921 Kbps\nMaximum bit rate: 40.0 Mbps\nWidth: 720 pixels\nHeight: 304 pixels\nDisplay aspect ratio: 2.35:1\nFrame rate mode: Constant\nFrame rate: 23.976 fps\nColor space: YUV\nChroma subsampling: 4:2:0\nBit depth: 8 bits\nScan type: Progressive\nBits/(Pixel*Frame): 0.176\nStream size: 551 MiB (69%)\nColor primaries: BT.709\nTransfer characteristics: BT.709\nMatrix coefficients: BT.709\n\nAudio\nID: 2\nFormat: AC-3\nFormat/Info: Audio Coding 3\nMode extension: CM (complete main)\nFormat settings, Endianness: Big\nCodec ID: A_AC3\nDuration: 1h 23mn\nBit rate mode: Constant\nBit rate: 384 Kbps\nChannel(s): 6 channels\nChannel positions: Front: L C R, Side: L R, LFE\nSampling rate: 48.0 KHz\nBit depth: 16 bits\nCompression mode: Lossy\nStream size: 230 MiB (29%)\nLanguage: English\nDefault: Yes\nForced: No \n\n\n &lt;a href=&quot;\nhttp://i.imgur.com/qMc9I9W.jpg&quot; rel=&quot;nofollow&quot; target=&quot;_NEW&quot;&gt;\nhttp://i.imgur.com/qMc9I9W.jpg&lt;/a&gt; &lt;a href=&quot;\nhttp://i.imgur.com/4iBeEgG.jpg&quot; rel=&quot;nofollow&quot; target=&quot;_NEW&quot;&gt;\nhttp://i.imgur.com/4iBeEgG.jpg&lt;/a&gt; &lt;a href=&quot;\nhttp://i.imgur.com/eqmJ119.jpg&quot; rel=&quot;nofollow&quot; target=&quot;_NEW&quot;&gt;\nhttp://i.imgur.com/eqmJ119.jpg&lt;/a&gt; &lt;a href=&quot;\nhttp://i.imgur.com/dFAFL4W.jpg&quot; rel=&quot;nofollow&quot; target=&quot;_NEW&quot;&gt;\nhttp://i.imgur.com/dFAFL4W.jpg&lt;/a&gt;","torrent":{"xt":"urn:btih:cf2a4995e7703454ba829d3e96b6197e18cbeb83","amp;dn":"Stuck+2014+UNRATED+HDRIP+x264+AC3+TiTAN","amp;tr":["udp%3A%2F%2Ftracker.openbittorrent.com%3A80","udp%3A%2F%2Fopen.demonii.com%3A1337","udp%3A%2F%2Ftracker.coppersurfer.tk%3A6969","udp%3A%2F%2Fexodus.desync.com%3A6969"],"infoHash":"cf2a4995e7703454ba829d3e96b6197e18cbeb83","infoHashBuffer":{"type":"Buffer","data":[207,42,73,149,231,112,52,84,186,130,157,62,150,182,25,126,24,203,235,131]},"announce":[],"urlList":[]}}